<svg width="14" height="14" viewBox="0 0 14 14" fill="none" xmlns="http://www.w3.org/2000/svg">
<g clip-path="url(#clip0_6626_2413)">
<path d="M9.91646 8.16406V1.16406M5.24979 10.5674L5.83313 8.16406H2.43229C2.25117 8.16406 2.07254 8.12189 1.91054 8.04089C1.74854 7.9599 1.60763 7.84229 1.49896 7.6974C1.39029 7.5525 1.31684 7.38429 1.28444 7.2061C1.25204 7.0279 1.26158 6.8446 1.31229 6.67073L2.67146 2.00406C2.74214 1.76173 2.88951 1.54886 3.09146 1.3974C3.2934 1.24594 3.53903 1.16406 3.79146 1.16406H11.6665C11.9759 1.16406 12.2726 1.28698 12.4914 1.50577C12.7102 1.72456 12.8331 2.02131 12.8331 2.33073V6.9974C12.8331 7.30681 12.7102 7.60356 12.4914 7.82235C12.2726 8.04115 11.9759 8.16406 11.6665 8.16406H10.0565C9.83941 8.16418 9.6267 8.22484 9.44223 8.33923C9.25777 8.45361 9.10888 8.61719 9.01229 8.81156L6.99979 12.8307C6.72471 12.8273 6.45394 12.7618 6.20774 12.639C5.96153 12.5163 5.74625 12.3395 5.57797 12.1219C5.40969 11.9042 5.29277 11.6514 5.23595 11.3822C5.17912 11.113 5.18385 10.8345 5.24979 10.5674Z" stroke="#ADADAD" stroke-linecap="round" stroke-linejoin="round"/>
</g>
<defs>
<clipPath id="clip0_6626_2413">
<rect width="14" height="14" fill="white"/>
</clipPath>
</defs>
</svg>
