<svg width="14" height="14" viewBox="0 0 14 14" fill="none" xmlns="http://www.w3.org/2000/svg">
<g clip-path="url(#clip0_6626_7725)">
<path d="M4.08366 5.83073V12.8307M8.75033 3.4274L8.16699 5.83073H11.5678C11.7489 5.83073 11.9276 5.8729 12.0896 5.9539C12.2516 6.0349 12.3925 6.1525 12.5012 6.2974C12.6098 6.44229 12.6833 6.6105 12.7157 6.7887C12.7481 6.96689 12.7385 7.15019 12.6878 7.32406L11.3287 11.9907C11.258 12.2331 11.1106 12.4459 10.9087 12.5974C10.7067 12.7489 10.4611 12.8307 10.2087 12.8307H2.33366C2.02424 12.8307 1.72749 12.7078 1.5087 12.489C1.28991 12.2702 1.16699 11.9735 1.16699 11.6641V6.9974C1.16699 6.68798 1.28991 6.39123 1.5087 6.17244C1.72749 5.95365 2.02424 5.83073 2.33366 5.83073H3.94366C4.16071 5.83061 4.37342 5.76995 4.55788 5.65557C4.74234 5.54118 4.89124 5.3776 4.98783 5.18323L7.00033 1.16406C7.27541 1.16747 7.54617 1.23299 7.79238 1.35574C8.03858 1.47849 8.25387 1.65529 8.42214 1.87293C8.59042 2.09057 8.70734 2.34342 8.76417 2.6126C8.821 2.88177 8.81627 3.16031 8.75033 3.4274Z" stroke="#ADADAD" stroke-linecap="round" stroke-linejoin="round"/>
</g>
<defs>
<clipPath id="clip0_6626_7725">
<rect width="14" height="14" fill="white"/>
</clipPath>
</defs>
</svg>
