<svg width="143" height="19" viewBox="0 0 143 19" fill="none" xmlns="http://www.w3.org/2000/svg">
<path d="M72.2695 19.0002C72.0083 19.0002 71.7751 18.8433 71.6865 18.6079L70.4307 15.27L69.0519 11.5932L67.8248 8.33287L66.5974 5.07318L65.3429 8.33287L64.088 11.5932L62.6722 15.27L61.3898 18.6114C61.3002 18.845 61.068 19.0002 60.8082 19.0002L57.0148 19.0002C56.5723 19.0002 56.2724 18.5688 56.4429 18.1777L64.2078 0.365167C64.3041 0.144154 64.5296 0.000244141 64.7796 0.000244141H68.5817C68.8325 0.000244141 69.0586 0.145077 69.1544 0.36714L76.8409 18.1796C77.0095 18.5705 76.7096 19.0002 76.2682 19.0002L72.2695 19.0002Z" fill="#1F1F1F"/>
<path d="M51.2249 19.0002C51.01 19.0002 50.8104 18.8936 50.6976 18.7184L47.0944 13.1259C47.0908 13.1203 47.0871 13.1147 47.0833 13.1092L46.5569 12.2913L46.048 13.1134C46.0433 13.1204 46.0387 13.1275 46.0342 13.1348L42.5815 18.7095C42.4699 18.8897 42.2673 19.0002 42.0486 19.0002H37.8642C37.3705 19.0002 37.075 18.4741 37.347 18.0794L43.3998 9.29545L43.4021 9.292L43.4047 9.2882L43.6289 8.96427L43.4068 8.65116C43.4031 8.6454 43.3991 8.64022 43.3951 8.63456L37.9281 0.927748C37.6485 0.533544 37.9432 0.000244141 38.4407 0.000244141H42.6633C42.8814 0.000244141 43.0834 0.110098 43.1953 0.289497L46.16 5.0444C46.1653 5.05286 46.1707 5.06115 46.1763 5.06924L46.6967 5.9039L47.2158 5.05719C47.2175 5.05468 47.2191 5.05216 47.2207 5.04962C47.2226 5.04676 47.2244 5.04388 47.2261 5.04098L50.1417 0.292917C50.253 0.111582 50.4562 0.000244141 50.6758 0.000244141H54.712C55.2072 0.000244141 55.5024 0.529158 55.2274 0.923709L49.8564 8.63042C49.8543 8.63344 49.8522 8.63648 49.8501 8.63953C49.848 8.6428 49.8458 8.64609 49.8437 8.64939L49.6246 8.96376L49.8544 9.28701C49.8561 9.28952 49.8579 9.29202 49.8597 9.29451L56.1032 18.0721C56.3835 18.4663 56.0889 19.0002 55.5911 19.0002H51.2249Z" fill="#1F1F1F"/>
<path d="M22.6517 19.0002C22.3095 19.0002 22.032 18.7344 22.032 18.4065V15.6753C22.032 15.3474 22.3095 15.0815 22.6518 15.0816L26.6334 15.0822H35.1886C35.5308 15.0822 35.8083 15.348 35.8083 15.6759V18.4065C35.8083 18.7344 35.5308 19.0002 35.1886 19.0002H22.6517Z" fill="#1F1F1F"/>
<path d="M26.6334 11.1372H31.119C31.4613 11.1372 31.7388 10.8714 31.7388 10.5435V8.08117C31.7388 7.75325 31.4613 7.48742 31.119 7.48742L26.6339 7.48742L22.6517 7.48742C22.3095 7.48742 22.032 7.75325 22.032 8.08117V10.5426C22.032 10.8704 22.3093 11.1362 22.6515 11.1363L26.6334 11.1372Z" fill="#1F1F1F"/>
<path d="M22.6517 3.92492C22.3095 3.92492 22.032 3.65909 22.032 3.33117V0.593994C22.032 0.266075 22.3095 0.000244141 22.6517 0.000244141H34.6866C35.0289 0.000244141 35.3063 0.266075 35.3063 0.593994V3.33117C35.3063 3.65909 35.0289 3.92492 34.6866 3.92492L22.6517 3.92492Z" fill="#1F1F1F"/>
<path d="M12.8963 19.0002C12.6807 19.0002 12.4806 18.8929 12.3679 18.7167L4.617 6.5995C4.6073 6.58434 4.59008 6.5751 4.57153 6.5751C4.54189 6.5751 4.51794 6.59825 4.51819 6.62664L4.6239 18.4014C4.62687 18.7313 4.34855 19.0002 4.00421 19.0002H0.619716C0.277456 19.0002 0 18.7344 0 18.4065V0.593994C0 0.266075 0.277456 0.000244141 0.619716 0.000244141H5.09072C5.30646 0.000244141 5.50668 0.107742 5.6193 0.284045L13.3424 12.3741C13.3521 12.3893 13.3693 12.3985 13.3879 12.3985C13.4175 12.3985 13.4414 12.3754 13.4412 12.347L13.3355 0.599112C13.3325 0.269205 13.6108 0.000244141 13.9552 0.000244141H17.3397C17.6819 0.000244141 17.9594 0.266075 17.9594 0.593994V18.4065C17.9594 18.7344 17.6819 19.0002 17.3397 19.0002H12.8963Z" fill="#1F1F1F"/>
<path d="M108.611 0.09375C113.174 0.0937504 113.497 0.192704 115.19 0.834961C118.753 2.1869 120.981 5.77862 121.032 9.50684C121.066 12.0001 120.05 14.8077 118.191 16.5C117.373 17.2437 116.412 17.7978 115.415 18.2617C113.799 19.0137 111.815 19 110.071 19H104.626C104.35 19 104.127 18.7766 104.126 18.501L104.101 9.46973L104.076 0.594727C104.076 0.318063 104.3 0.0937789 104.576 0.09375H108.611ZM89.9933 0.201172C90.9354 -0.0178904 94.0352 -0.026877 94.9796 0.186523C96.4648 0.522132 97.6069 0.987572 98.9327 1.61719C99.2762 1.78015 99.7218 2.08403 100.049 2.32129C100.29 2.49579 100.312 2.84016 100.101 3.04883C99.6224 3.51984 98.8346 4.27276 98.4767 4.48633C98.0085 4.76555 97.5103 4.83226 97.1808 4.66016C96.1077 4.09991 95.1897 3.78368 93.7911 3.55469C92.7024 3.37648 91.623 3.4373 90.963 3.51367C89.8641 3.64084 88.755 4.23915 88.755 5.34961C88.7554 7.46899 92.6154 7.56743 94.086 7.74219C96.0335 7.97379 98.2945 8.51125 99.7394 9.8457C101.214 11.2071 101.504 13.552 100.46 15.6689C99.687 17.2373 97.5779 18.1908 95.8946 18.5928C93.4557 19.1749 90.7874 19.0082 88.4317 18.1924C87.2156 17.7712 86.3896 17.3048 85.4894 16.7383C85.127 16.5102 84.844 16.3113 84.5665 16.1084C84.3285 15.9342 84.2955 15.5923 84.5001 15.3799C84.6182 15.2573 84.7541 15.1183 84.8946 14.9824C85.6796 14.2235 86.4509 13.7157 86.8263 13.71C86.9699 13.7082 87.8046 14.098 88.4317 14.3447C88.9928 14.5654 89.2935 14.7257 89.8692 14.9082C91.2709 15.3526 92.4943 15.556 93.6075 15.4551C94.7039 15.3555 96.0563 15.1663 96.6202 14.3447C97.1166 13.6215 97.0072 12.6986 96.3634 12.1172C95.7564 11.5692 94.7371 11.2075 93.3233 11.0381C91.4928 10.8188 88.2802 10.4208 86.714 9.45898C86.0778 9.06848 85.3531 8.45941 85.0646 7.76953C84.7801 6.92536 84.6168 6.27285 84.6446 5.34961C84.6694 4.53011 84.8368 3.88603 85.1964 3.16309C85.4801 2.59236 86.0532 1.94603 86.7247 1.43945C87.5401 0.824191 88.9827 0.43623 89.9933 0.201172ZM141.858 0.00585938C142.29 0.00378504 142.521 0.509238 142.231 0.830078C140.156 3.124 134.837 8.97316 134.827 8.98438L141.938 18.0947C142.193 18.423 141.959 18.9023 141.543 18.9023H138.243C138.094 18.9023 137.952 18.8353 137.857 18.7197L129.862 8.98438L137.827 0.177734C137.923 0.0725208 138.057 0.0122762 138.199 0.0126953C138.64 0.014274 139.648 0.0178243 140.425 0.0126953L141.858 0.00585938ZM128.133 0C128.409 0 128.633 0.224486 128.633 0.500977L128.608 9.4248L128.581 18.3564C128.58 18.6295 128.361 18.852 128.088 18.8555L124.532 18.9004C124.254 18.9039 124.026 18.679 124.025 18.4004V0.5C124.025 0.223903 124.249 7.38632e-05 124.525 0H128.133ZM107.917 15.3652H110.077C110.077 15.3652 113.092 15.4306 114.221 14.7285C115.35 14.0263 117.107 12.3048 117.108 9.74609C117.108 7.60293 115.881 5.53586 114.037 4.57129C112.966 4.01097 112.488 3.9336 110.077 3.93164L107.958 3.92969L107.917 15.3652Z" fill="#1F1F1F"/>
</svg>
